<?xml version="1.0" encoding="UTF-8"?>
<svg width="42px" height="42px" viewBox="0 0 42 42" version="1.1" xmlns="http://www.w3.org/2000/svg" xmlns:xlink="http://www.w3.org/1999/xlink">
    <!-- Generator: Sketch 58 (84663) - https://sketch.com -->
    <title>noun_Blueberry_277758</title>
    <desc>Created with Sketch.</desc>
    <g id="Welcome" stroke="none" stroke-width="1" fill="none" fill-rule="evenodd">
        <g id="noun_Blueberry_277758">
            <g id="Group">
                <path d="M21,0 C9.4,0 0,9.4 0,21 C0,32.6 9.4,42 21,42 C32.6,42 42,32.6 42,21 C42,9.4 32.6,0 21,0 Z M21,39.9 C10.6,39.9 2.1,31.4 2.1,21 C2.1,10.6 10.6,2.1 21,2.1 C31.4,2.1 39.9,10.5 39.9,21 C39.9,31.5 31.4,39.9 21,39.9 Z" id="Shape" fill="#2912C2" fill-rule="nonzero"></path>
                <circle id="Oval" fill="#2912C2" cx="21" cy="21" r="19"></circle>
                <path d="M6.5,25.4 C6.4,25 5.9,24.8 5.5,24.9 C5.1,25 4.9,25.5 5,25.9 C5.9,29 7.8,31.8 10.3,33.9 C10.4,34 10.6,34.1 10.8,34.1 C11,34.1 11.2,34 11.4,33.8 C11.7,33.5 11.6,33 11.3,32.7 C9,30.7 7.4,28.2 6.5,25.4 Z" id="Path" fill="#FFFFFF" fill-rule="nonzero"></path>
                <path d="M15,34.9 C14.3,34.6 13.6,34.2 13,33.8 C12.6,33.6 12.2,33.7 11.9,34 C11.7,34.4 11.8,34.8 12.1,35.1 C12.8,35.6 13.6,36 14.3,36.3 C14.4,36.3 14.5,36.4 14.6,36.4 C14.9,36.4 15.2,36.2 15.3,36 C15.6,35.6 15.4,35.1 15,34.9 Z" id="Path" fill="#FFFFFF" fill-rule="nonzero"></path>
                <path d="M35,12.5 C34.7,11.7 34,11.1 33.1,11.1 L30.2,11.1 L29.3,8.4 C29,7.6 28.3,7 27.4,7 C26.5,7 25.8,7.5 25.5,8.4 L24.6,11.1 L21.7,11.1 C20.8,11.1 20.1,11.6 19.8,12.5 C19.5,13.3 19.8,14.2 20.5,14.7 L22.8,16.4 L21.9,19.1 C21.7,19.7 21.8,20.3 22.2,20.9 C22.8,21.8 24.1,22 25,21.3 L27.3,19.6 L29.6,21.3 C29.9,21.5 30.3,21.7 30.8,21.7 C31.4,21.7 32,21.4 32.4,20.9 C32.8,20.4 32.9,19.8 32.7,19.1 L32,16.4 L34.3,14.7 C35,14.2 35.3,13.4 35,12.5 Z M33.4,13.5 L30.6,15.5 C30.3,15.7 30.2,16 30.3,16.4 L31.4,19.7 C31.4,19.8 31.4,20 31.3,20.1 C31.2,20.3 30.9,20.4 30.7,20.2 L27.9,18.2 C27.8,18.1 27.6,18.1 27.4,18.1 C27.2,18.1 27.1,18.1 26.9,18.2 L24.1,20.2 C23.9,20.3 23.6,20.3 23.5,20.1 C23.4,20 23.4,19.9 23.4,19.7 L24.5,16.4 C24.6,16.1 24.5,15.7 24.2,15.5 L21.4,13.5 C21.2,13.3 21.2,13.1 21.2,13 C21.2,12.9 21.3,12.7 21.6,12.7 L25,12.7 C25.3,12.7 25.6,12.5 25.7,12.2 L26.8,8.9 C26.9,8.6 27.1,8.6 27.2,8.6 C27.3,8.6 27.5,8.6 27.6,8.9 L28.7,12.2 C28.8,12.5 29.1,12.7 29.4,12.7 L32.8,12.7 C33.1,12.7 33.2,12.9 33.2,13 C33.6,13.1 33.7,13.3 33.4,13.5 Z" id="Shape" fill="#FFFFFF" fill-rule="nonzero"></path>
            </g>
        </g>
    </g>
</svg>